v -0.8 0.6 0.8
v -0.8 0 0.7
v -0.8 0 0.8
v -0.8 0.6 0.7
v -0.8 0.6 0.1
v -0.8 0 -5.96046e-08
v -0.8 0 0.1
v -0.8 0.6 -5.96046e-08
v -0.8 1.5 0.8
v -0.8 1.5 -5.96046e-08
v -0.1 0.6 0.8
v -0.1 0 0.7
v -0.1 0 0.8
v -0.1 0.6 0.7
v -0.1 0.6 0.1
v -0.1 0 -5.96046e-08
v -0.1 0 0.1
v -0.1 0.6 -5.96046e-08
v -0.7 0 0.8
v -0.7 0 0.7
v -0.7 0.6 0.8
v -0.7 0.6 0.7
v -0.7 0 0.1
v -0.7 0 -5.96046e-08
v -0.7 0.6 0.1
v -0.7 0.6 -5.96046e-08
v -0.7 0.7 0.8
v -0.7 0.7 -5.96046e-08
v -0.7 1.5 0.8
v -0.7 1.5 -5.96046e-08
v 5.96046e-08 0 0.8
v 5.96046e-08 0 0.7
v 5.96046e-08 0.6 0.8
v 5.96046e-08 0.6 0.7
v 5.96046e-08 0 0.1
v 5.96046e-08 0 -5.96046e-08
v 5.96046e-08 0.6 0.1
v 5.96046e-08 0.6 -5.96046e-08
v 5.96046e-08 0.7 0.8
v 5.96046e-08 0.7 -5.96046e-08
vn -1 0 0
vn 1 0 0
vn 0 0 1
vn 0 0 -1
vn 0 -1 0
vn 0 1 0
vt 0.0253906 0.5
vt 0.0761719 0.5
f 1/1/1 2/1/1 3/1/1
f 4/1/1 2/1/1 1/1/1
f 5/1/1 6/1/1 7/1/1
f 8/1/1 6/1/1 5/1/1
f 9/2/1 4/2/1 1/2/1
f 9/2/1 5/2/1 4/2/1
f 9/2/1 8/2/1 5/2/1
f 10/2/1 8/2/1 9/2/1
f 11/1/1 12/1/1 13/1/1
f 14/1/1 12/1/1 11/1/1
f 15/1/1 16/1/1 17/1/1
f 18/1/1 16/1/1 15/1/1
f 19/1/2 20/1/2 21/1/2
f 21/1/2 20/1/2 22/1/2
f 23/1/2 24/1/2 25/1/2
f 25/1/2 24/1/2 26/1/2
f 27/2/2 28/2/2 29/2/2
f 29/2/2 28/2/2 30/2/2
f 31/1/2 32/1/2 33/1/2
f 33/1/2 32/1/2 34/1/2
f 35/1/2 36/1/2 37/1/2
f 37/1/2 36/1/2 38/1/2
f 33/2/2 34/2/2 39/2/2
f 34/2/2 37/2/2 39/2/2
f 37/2/2 38/2/2 39/2/2
f 39/2/2 38/2/2 40/2/2
f 19/1/3 1/1/3 3/1/3
f 21/2/3 9/2/3 1/2/3
f 21/1/3 1/1/3 19/1/3
f 27/2/3 9/2/3 21/2/3
f 29/2/3 9/2/3 27/2/3
f 11/2/3 27/2/3 21/2/3
f 31/1/3 11/1/3 13/1/3
f 33/2/3 27/2/3 11/2/3
f 33/1/3 11/1/3 31/1/3
f 39/2/3 27/2/3 33/2/3
f 23/1/3 5/1/3 7/1/3
f 25/1/3 5/1/3 23/1/3
f 35/1/3 15/1/3 17/1/3
f 37/1/3 15/1/3 35/1/3
f 2/1/4 4/1/4 20/1/4
f 20/1/4 4/1/4 22/1/4
f 12/1/4 14/1/4 32/1/4
f 32/1/4 14/1/4 34/1/4
f 6/1/4 8/1/4 24/1/4
f 8/2/4 10/2/4 26/2/4
f 24/1/4 8/1/4 26/1/4
f 26/2/4 10/2/4 28/2/4
f 28/2/4 10/2/4 30/2/4
f 26/2/4 28/2/4 18/2/4
f 16/1/4 18/1/4 36/1/4
f 18/2/4 28/2/4 38/2/4
f 36/1/4 18/1/4 38/1/4
f 38/2/4 28/2/4 40/2/4
f 2/1/5 19/1/5 3/1/5
f 20/1/5 19/1/5 2/1/5
f 12/1/5 31/1/5 13/1/5
f 32/1/5 31/1/5 12/1/5
f 6/1/5 23/1/5 7/1/5
f 24/1/5 23/1/5 6/1/5
f 16/1/5 35/1/5 17/1/5
f 36/1/5 35/1/5 16/1/5
f 22/2/5 11/2/5 21/2/5
f 14/2/5 11/2/5 22/2/5
f 5/2/5 22/2/5 4/2/5
f 5/2/5 34/2/5 14/2/5
f 5/2/5 14/2/5 22/2/5
f 25/2/5 34/2/5 5/2/5
f 15/2/5 34/2/5 25/2/5
f 37/2/5 34/2/5 15/2/5
f 26/2/5 15/2/5 25/2/5
f 18/2/5 15/2/5 26/2/5
f 27/2/6 39/2/6 28/2/6
f 28/2/6 39/2/6 40/2/6
f 9/2/6 29/2/6 10/2/6
f 10/2/6 29/2/6 30/2/6
s off
